# xmcd
#
# Track frame offsets: 
#        150
#        1681
#        15823
#        31311
#        36285
#        56174
#        70273
#        75200
#        105059
#        118340
#        123806
#        140271
#        154337
#        169243
#        183623
#        200466
#        211398
#        227623
#
# Disc length: 3251 seconds
#
# Revision: 2
# Processed by: cddbd v1.5.2PL0 Copyright (c) Steve Scherf et al.
# Submitted via: ExactAudioCopy v0.99pb4
#
DISCID=de0cb112
DTITLE=Broken Sound - Нарушители Звука
DYEAR=2003
DGENRE=Rap
TTITLE0=Intro
TTITLE1=Резонанс
TTITLE2=Всё Будет Путем
TTITLE3=Нарушители Звука
TTITLE4=Брат
TTITLE5=Skit
TTITLE6=1-2-3
TTITLE7=Sounds Iz Broken (Chuck D's Radio)
TTITLE8=Make It Funky
TTITLE9=Outro
TTITLE10=Все Будет Путем (Rmx Feat. Pastor)
TTITLE11=Не Бойся, Я  С Тобой 
TTITLE12=Властелин Времени
TTITLE13=Друг
TTITLE14=$ 1.000.000
TTITLE15=Hip-Hop Action (Радиотехника М103 Stereo)
TTITLE16=Резонанс (Сумасшедшие Койоты Vers.)
TTITLE17=P.E. # 1 (Russian Vodka B.S.'s Remix)
EXTD=
EXTT0=
EXTT1=
EXTT2=
EXTT3=
EXTT4=
EXTT5=
EXTT6=
EXTT7=
EXTT8=
EXTT9=
EXTT10=
EXTT11=
EXTT12=
EXTT13=
EXTT14=
EXTT15=
EXTT16=
EXTT17=
PLAYORDER=
